<svg width="1389" height="697" viewBox="0 0 1389 697" fill="none" xmlns="http://www.w3.org/2000/svg">
<g opacity="0.1">
<rect x="-110.292" y="0.25" width="115.564" height="110.955" stroke="#111111" stroke-opacity="0.5" stroke-width="0.5"/>
<rect x="4.99796" y="0.25" width="115.564" height="110.955" stroke="#111111" stroke-opacity="0.5" stroke-width="0.5"/>
<rect x="120.288" y="0.25" width="115.564" height="110.955" stroke="#111111" stroke-opacity="0.5" stroke-width="0.5"/>
<rect x="235.327" width="116.064" height="111.455" fill="#000AFF" fill-opacity="0.3"/>
<rect x="350.867" y="0.25" width="115.564" height="110.955" stroke="#111111" stroke-opacity="0.5" stroke-width="0.5"/>
<rect x="466.157" y="0.25" width="115.564" height="110.955" stroke="#111111" stroke-opacity="0.5" stroke-width="0.5"/>
<rect x="581.447" y="0.25" width="115.564" height="110.955" stroke="#111111" stroke-opacity="0.5" stroke-width="0.5"/>
<rect x="696.737" y="0.25" width="115.564" height="110.955" stroke="#111111" stroke-opacity="0.5" stroke-width="0.5"/>
<rect x="811.777" width="116.064" height="111.455" fill="#000AFF" fill-opacity="0.3"/>
<rect x="927.317" y="0.25" width="115.564" height="110.955" stroke="#111111" stroke-opacity="0.5" stroke-width="0.5"/>
<rect x="1042.61" y="0.25" width="115.564" height="110.955" stroke="#111111" stroke-opacity="0.5" stroke-width="0.5"/>
<rect x="1157.9" y="0.25" width="115.564" height="110.955" stroke="#111111" stroke-opacity="0.5" stroke-width="0.5"/>
<rect x="1273.19" y="0.25" width="115.564" height="110.955" stroke="#111111" stroke-opacity="0.5" stroke-width="0.5"/>
<rect x="-110.542" y="110.712" width="116.064" height="111.455" fill="#000AFF" fill-opacity="0.3"/>
<rect x="4.99796" y="110.962" width="115.564" height="110.955" stroke="#111111" stroke-opacity="0.5" stroke-width="0.5"/>
<rect x="120.288" y="110.962" width="115.564" height="110.955" stroke="#111111" stroke-opacity="0.5" stroke-width="0.5"/>
<rect x="235.577" y="110.962" width="115.564" height="110.955" stroke="#111111" stroke-opacity="0.5" stroke-width="0.5"/>
<rect x="350.867" y="110.962" width="115.564" height="110.955" stroke="#111111" stroke-opacity="0.5" stroke-width="0.5"/>
<rect x="466.157" y="110.962" width="115.564" height="110.955" stroke="#111111" stroke-opacity="0.5" stroke-width="0.5"/>
<rect x="581.447" y="110.962" width="115.564" height="110.955" stroke="#111111" stroke-opacity="0.5" stroke-width="0.5"/>
<rect x="696.737" y="110.962" width="115.564" height="110.955" stroke="#111111" stroke-opacity="0.5" stroke-width="0.5"/>
<rect x="812.027" y="110.962" width="115.564" height="110.955" stroke="#111111" stroke-opacity="0.5" stroke-width="0.5"/>
<rect x="927.317" y="110.962" width="115.564" height="110.955" stroke="#111111" stroke-opacity="0.5" stroke-width="0.5"/>
<rect x="1042.61" y="110.962" width="115.564" height="110.955" stroke="#111111" stroke-opacity="0.5" stroke-width="0.5"/>
<rect x="1157.65" y="110.712" width="116.064" height="111.455" fill="#000AFF" fill-opacity="0.3"/>
<rect x="1273.19" y="110.962" width="115.564" height="110.955" stroke="#111111" stroke-opacity="0.5" stroke-width="0.5"/>
<rect x="-110.292" y="221.674" width="115.564" height="110.955" stroke="#111111" stroke-opacity="0.5" stroke-width="0.5"/>
<rect x="4.99796" y="221.674" width="115.564" height="110.955" stroke="#111111" stroke-opacity="0.5" stroke-width="0.5"/>
<rect x="120.038" y="221.424" width="116.064" height="111.455" fill="#000AFF" fill-opacity="0.3"/>
<rect x="235.577" y="221.674" width="115.564" height="110.955" stroke="#111111" stroke-opacity="0.5" stroke-width="0.5"/>
<rect x="350.867" y="221.674" width="115.564" height="110.955" stroke="#111111" stroke-opacity="0.5" stroke-width="0.5"/>
<rect x="466.157" y="221.674" width="115.564" height="110.955" stroke="#111111" stroke-opacity="0.5" stroke-width="0.5"/>
<rect x="581.447" y="221.674" width="115.564" height="110.955" stroke="#111111" stroke-opacity="0.5" stroke-width="0.5"/>
<rect x="696.737" y="221.674" width="115.564" height="110.955" stroke="#111111" stroke-opacity="0.5" stroke-width="0.5"/>
<rect x="812.027" y="221.674" width="115.564" height="110.955" stroke="#111111" stroke-opacity="0.5" stroke-width="0.5"/>
<rect x="927.317" y="221.674" width="115.564" height="110.955" stroke="#111111" stroke-opacity="0.5" stroke-width="0.5"/>
<rect x="1042.61" y="221.674" width="115.564" height="110.955" stroke="#111111" stroke-opacity="0.5" stroke-width="0.5"/>
<rect x="1157.9" y="221.674" width="115.564" height="110.955" stroke="#111111" stroke-opacity="0.5" stroke-width="0.5"/>
<rect x="1273.19" y="221.674" width="115.564" height="110.955" stroke="#111111" stroke-opacity="0.5" stroke-width="0.5"/>
<rect x="-110.292" y="332.386" width="115.564" height="110.955" stroke="#111111" stroke-opacity="0.5" stroke-width="0.5"/>
<rect x="4.99796" y="332.386" width="115.564" height="110.955" stroke="#111111" stroke-opacity="0.5" stroke-width="0.5"/>
<rect x="120.288" y="332.386" width="115.564" height="110.955" stroke="#111111" stroke-opacity="0.5" stroke-width="0.5"/>
<rect x="235.577" y="332.386" width="115.564" height="110.955" stroke="#111111" stroke-opacity="0.5" stroke-width="0.5"/>
<rect x="350.867" y="332.386" width="115.564" height="110.955" stroke="#111111" stroke-opacity="0.5" stroke-width="0.5"/>
<rect x="466.157" y="332.386" width="115.564" height="110.955" stroke="#111111" stroke-opacity="0.5" stroke-width="0.5"/>
<rect x="581.447" y="332.386" width="115.564" height="110.955" stroke="#111111" stroke-opacity="0.5" stroke-width="0.5"/>
<rect x="696.737" y="332.386" width="115.564" height="110.955" stroke="#111111" stroke-opacity="0.5" stroke-width="0.5"/>
<rect x="812.027" y="332.386" width="115.564" height="110.955" stroke="#111111" stroke-opacity="0.5" stroke-width="0.5"/>
<rect x="927.317" y="332.386" width="115.564" height="110.955" stroke="#111111" stroke-opacity="0.5" stroke-width="0.5"/>
<rect x="1042.36" y="332.136" width="116.064" height="111.455" fill="#000AFF" fill-opacity="0.3"/>
<rect x="1157.9" y="332.386" width="115.564" height="110.955" stroke="#111111" stroke-opacity="0.5" stroke-width="0.5"/>
<rect x="1273.19" y="332.386" width="115.564" height="110.955" stroke="#111111" stroke-opacity="0.5" stroke-width="0.5"/>
<rect x="-111" y="442.848" width="116.064" height="111.455" fill="#000AFF" fill-opacity="0.3"/>
<rect x="4.99785" y="443.098" width="115.564" height="110.955" stroke="#111111" stroke-opacity="0.5" stroke-width="0.5"/>
<rect x="120.288" y="443.098" width="115.564" height="110.955" stroke="#111111" stroke-opacity="0.5" stroke-width="0.5"/>
<rect x="235.577" y="443.098" width="115.564" height="110.955" stroke="#111111" stroke-opacity="0.5" stroke-width="0.5"/>
<rect x="350.867" y="443.098" width="115.564" height="110.955" stroke="#111111" stroke-opacity="0.5" stroke-width="0.5"/>
<rect x="465.907" y="442.848" width="116.064" height="111.455" fill="#000AFF" fill-opacity="0.3"/>
<rect x="581.446" y="443.098" width="115.564" height="110.955" stroke="#111111" stroke-opacity="0.5" stroke-width="0.5"/>
<rect x="696.737" y="443.098" width="115.564" height="110.955" stroke="#111111" stroke-opacity="0.5" stroke-width="0.5"/>
<rect x="812.027" y="443.098" width="115.564" height="110.955" stroke="#111111" stroke-opacity="0.5" stroke-width="0.5"/>
<rect x="927.317" y="443.098" width="115.564" height="110.955" stroke="#111111" stroke-opacity="0.5" stroke-width="0.5"/>
<rect x="1042.61" y="443.098" width="115.564" height="110.955" stroke="#111111" stroke-opacity="0.5" stroke-width="0.5"/>
<rect x="1157.9" y="443.098" width="115.564" height="110.955" stroke="#111111" stroke-opacity="0.5" stroke-width="0.5"/>
<rect x="1272.94" y="442.848" width="116.064" height="111.455" fill="#000AFF" fill-opacity="0.3"/>
</g>
<rect x="-110.542" y="32" width="1499.54" height="665" fill="url(#paint0_radial_89_2975)"/>
<rect x="-110.542" y="32" width="1499.54" height="665" fill="url(#paint1_linear_89_2975)"/>
<defs>
<radialGradient id="paint0_radial_89_2975" cx="0" cy="0" r="1" gradientUnits="userSpaceOnUse" gradientTransform="translate(639 234) rotate(-90) scale(171 323.069)">
<stop stop-color="#FAFBFC" stop-opacity="0.8"/>
<stop offset="1" stop-color="#FAFBFC" stop-opacity="0"/>
</radialGradient>
<linearGradient id="paint1_linear_89_2975" x1="639" y1="517.5" x2="639" y2="305.5" gradientUnits="userSpaceOnUse">
<stop stop-color="#FAFBFC"/>
<stop offset="1" stop-color="#FAFBFC" stop-opacity="0"/>
</linearGradient>
</defs>
</svg>
