<svg width="145" height="36" viewBox="0 0 145 36" fill="none" xmlns="http://www.w3.org/2000/svg">
<path d="M19.9544 8.39418L28.2588 17.7574L14.6812 21.5768L7.21856 12.2526L19.9544 8.39418ZM14.8196 20.9009L23.1784 18.5495L19.0249 13.8705L10.9768 16.0996L14.8196 20.9009ZM19.1461 13.2035L23.7493 18.388L27.2329 17.4079L19.8312 9.06298L8.17041 12.5959L10.5592 15.5807L19.1461 13.2035Z" fill="#444BFF"/>
<path d="M21.273 4L35 19.4214L34.5536 25.3182L12.5097 32L0 15.9763L0.458879 9.89502L21.273 4ZM34.1307 24.8082L34.4992 19.9439L13.3553 25.9258L12.8486 31.2594L34.1307 24.8082ZM13.219 25.3306L34.2448 19.3806L21.1504 4.6688L1.15638 10.3332L13.219 25.3306ZM0.481821 15.735L12.4127 31.0137L12.9089 25.7883L0.856797 10.798L0.481821 15.735Z" fill="#444BFF"/>
<path d="M12.8485 31.2593L34.1307 24.8082L34.4991 19.9439L13.3553 25.9267L12.8485 31.2593Z" fill="#444BFF"/>
<path d="M0.853498 10.7997L0.479843 15.735L12.4094 31.0136L12.9056 25.7883L0.853498 10.7997Z" fill="#444BFF"/>
<path d="M21.1503 4.66876L34.2447 19.3806L13.2149 25.3306L1.15299 10.3332L21.1503 4.66876ZM14.6807 21.5768L28.2583 17.7574L19.9539 8.39417L7.21806 12.2526L14.6807 21.5768Z" fill="white"/>
<path d="M8.17255 12.5995L10.5613 15.5843L19.1483 13.2071L23.7515 18.3916L27.235 17.4115L19.8333 9.06659L8.17255 12.5995Z" fill="#444BFF"/>
<path d="M44.92 26H47.896V21.176C47.896 18.128 49.12 16.256 50.656 16.256C51.808 16.256 52.384 16.928 52.384 18.248V26H55.36V17.36C55.36 14.984 53.872 13.712 51.64 13.712C50.128 13.712 48.88 14.432 47.896 15.848V13.904H44.92V26ZM60.9739 17.648C61.2859 16.712 61.9819 16.256 63.0619 16.256C64.4779 16.256 65.1739 16.856 65.1739 18.032V18.56H63.1579C60.0859 18.56 57.9979 20.12 57.9979 22.52C57.9979 24.848 59.5339 26.192 61.6699 26.192C63.2059 26.192 64.4539 25.616 65.3899 24.464L65.7019 26H68.1499V18.776C68.1499 15.392 66.4459 13.712 63.0619 13.712C60.6379 13.712 58.8379 15.056 58.4539 17.072L60.9739 17.648ZM61.1179 22.472C61.1179 21.44 61.8139 20.912 63.1819 20.912H65.1739V21.152C65.1739 21.896 64.8859 22.496 64.3099 22.952C63.7579 23.408 63.1099 23.648 62.3659 23.648C61.5739 23.648 61.1179 23.12 61.1179 22.472ZM81.226 21.296C81.226 18.032 82.306 16.256 83.842 16.256C84.826 16.256 85.33 16.808 85.33 17.936V26H88.306V17.432C88.306 15.104 86.938 13.712 84.706 13.712C83.17 13.712 81.946 14.552 81.01 16.208C80.506 14.552 79.186 13.712 77.626 13.712C76.258 13.712 75.082 14.432 74.146 15.848V13.904H71.17V26H74.146V21.56C74.146 18.104 75.226 16.256 76.762 16.256C77.746 16.256 78.25 16.808 78.25 17.936V26H81.226V21.296ZM102.449 19.688C102.449 18.32 102.017 16.904 101.153 15.728C100.289 14.504 98.7288 13.712 96.8088 13.712C92.6568 13.712 91.0008 17.072 91.0008 19.952C91.0008 22.832 92.6568 26.192 96.8088 26.192C99.4488 26.192 101.273 25.016 102.305 22.664L99.9048 21.776C99.1848 23.024 98.2008 23.648 96.9768 23.648C95.2488 23.648 94.1928 22.376 94.1208 20.912H102.449V19.688ZM96.8088 16.256C98.2008 16.256 99.0648 17.024 99.4008 18.56H94.1928C94.4088 17.288 95.3928 16.256 96.8088 16.256ZM105.083 26H108.059V9.008H105.083V26ZM122.277 19.688C122.277 18.32 121.845 16.904 120.981 15.728C120.117 14.504 118.557 13.712 116.637 13.712C112.485 13.712 110.829 17.072 110.829 19.952C110.829 22.832 112.485 26.192 116.637 26.192C119.277 26.192 121.101 25.016 122.133 22.664L119.733 21.776C119.013 23.024 118.029 23.648 116.805 23.648C115.077 23.648 114.021 22.376 113.949 20.912H122.277V19.688ZM116.637 16.256C118.029 16.256 118.893 17.024 119.229 18.56H114.021C114.237 17.288 115.221 16.256 116.637 16.256ZM128.677 13.712C127.549 13.712 126.613 14.048 125.893 14.744C125.173 15.44 124.813 16.256 124.813 17.24C124.813 18.968 125.725 19.856 127.261 20.504C127.717 20.696 128.557 20.96 128.965 21.152C129.181 21.224 129.421 21.32 129.637 21.44C130.093 21.656 130.285 21.968 130.285 22.352C130.285 23.216 129.781 23.648 128.797 23.648C127.669 23.648 126.853 22.976 126.373 21.656L123.997 22.928C124.357 23.792 124.957 24.56 125.797 25.208C126.637 25.856 127.645 26.192 128.797 26.192C130.069 26.192 131.101 25.808 131.893 25.016C132.685 24.224 133.093 23.288 133.093 22.16C133.093 21.32 132.709 20.6 132.349 20.192C132.181 19.976 131.893 19.784 131.485 19.568C131.101 19.352 130.813 19.184 130.621 19.112L129.589 18.752L128.725 18.44C127.957 18.152 127.573 17.768 127.573 17.264C127.573 16.616 128.077 16.256 128.677 16.256C129.469 16.256 130.141 16.616 130.693 17.312L132.469 15.68C131.701 14.504 130.285 13.712 128.677 13.712ZM139.505 13.712C138.377 13.712 137.441 14.048 136.721 14.744C136.001 15.44 135.641 16.256 135.641 17.24C135.641 18.968 136.553 19.856 138.089 20.504C138.545 20.696 139.385 20.96 139.793 21.152C140.009 21.224 140.249 21.32 140.465 21.44C140.921 21.656 141.113 21.968 141.113 22.352C141.113 23.216 140.609 23.648 139.625 23.648C138.497 23.648 137.681 22.976 137.201 21.656L134.825 22.928C135.185 23.792 135.785 24.56 136.625 25.208C137.465 25.856 138.473 26.192 139.625 26.192C140.897 26.192 141.929 25.808 142.721 25.016C143.513 24.224 143.921 23.288 143.921 22.16C143.921 21.32 143.537 20.6 143.177 20.192C143.009 19.976 142.721 19.784 142.313 19.568C141.929 19.352 141.641 19.184 141.449 19.112L140.417 18.752L139.553 18.44C138.785 18.152 138.401 17.768 138.401 17.264C138.401 16.616 138.905 16.256 139.505 16.256C140.297 16.256 140.969 16.616 141.521 17.312L143.297 15.68C142.529 14.504 141.113 13.712 139.505 13.712Z" fill="#444BFF"/>
</svg>
